<svg id="visual" viewBox="0 0 960 540" width="960" height="540" xmlns="http://www.w3.org/2000/svg" xmlns:xlink="http://www.w3.org/1999/xlink" version="1.1"><rect x="0" y="0" width="960" height="540" fill="#f8ffcf"></rect><defs><linearGradient id="grad1_0" x1="43.8%" y1="0%" x2="100%" y2="100%"><stop offset="14.444444444444446%" stop-color="#ffcb30" stop-opacity="1"></stop><stop offset="85.55555555555554%" stop-color="#ffcb30" stop-opacity="1"></stop></linearGradient></defs><defs><linearGradient id="grad1_1" x1="43.8%" y1="0%" x2="100%" y2="100%"><stop offset="14.444444444444446%" stop-color="#ffcb30" stop-opacity="1"></stop><stop offset="85.55555555555554%" stop-color="#f7df6a" stop-opacity="1"></stop></linearGradient></defs><defs><linearGradient id="grad1_2" x1="43.8%" y1="0%" x2="100%" y2="100%"><stop offset="14.444444444444446%" stop-color="#f4f19e" stop-opacity="1"></stop><stop offset="85.55555555555554%" stop-color="#f7df6a" stop-opacity="1"></stop></linearGradient></defs><defs><linearGradient id="grad1_3" x1="43.8%" y1="0%" x2="100%" y2="100%"><stop offset="14.444444444444446%" stop-color="#f4f19e" stop-opacity="1"></stop><stop offset="85.55555555555554%" stop-color="#f8ffcf" stop-opacity="1"></stop></linearGradient></defs><defs><linearGradient id="grad2_0" x1="0%" y1="0%" x2="56.3%" y2="100%"><stop offset="14.444444444444446%" stop-color="#ffcb30" stop-opacity="1"></stop><stop offset="85.55555555555554%" stop-color="#ffcb30" stop-opacity="1"></stop></linearGradient></defs><defs><linearGradient id="grad2_1" x1="0%" y1="0%" x2="56.3%" y2="100%"><stop offset="14.444444444444446%" stop-color="#f7df6a" stop-opacity="1"></stop><stop offset="85.55555555555554%" stop-color="#ffcb30" stop-opacity="1"></stop></linearGradient></defs><defs><linearGradient id="grad2_2" x1="0%" y1="0%" x2="56.3%" y2="100%"><stop offset="14.444444444444446%" stop-color="#f7df6a" stop-opacity="1"></stop><stop offset="85.55555555555554%" stop-color="#f4f19e" stop-opacity="1"></stop></linearGradient></defs><defs><linearGradient id="grad2_3" x1="0%" y1="0%" x2="56.3%" y2="100%"><stop offset="14.444444444444446%" stop-color="#f8ffcf" stop-opacity="1"></stop><stop offset="85.55555555555554%" stop-color="#f4f19e" stop-opacity="1"></stop></linearGradient></defs><g transform="translate(960, 0)"><path d="M0 324C-34.2 321.2 -68.4 318.4 -100.1 308.1C-131.9 297.9 -161.2 280.1 -187.5 258.1C-213.8 236.1 -237.2 210 -248.4 180.5C-259.6 150.9 -258.6 118.1 -269.1 87.5C-279.7 56.8 -301.9 28.4 -324 0L0 0Z" fill="#f5f8b7"></path><path d="M0 243C-25.6 240.9 -51.3 238.8 -75.1 231.1C-98.9 223.4 -120.9 210 -140.6 193.6C-160.4 177.1 -177.9 157.5 -186.3 135.3C-194.7 113.2 -193.9 88.6 -201.9 65.6C-209.8 42.6 -226.4 21.3 -243 0L0 0Z" fill="#f5e884"></path><path d="M0 162C-17.1 160.6 -34.2 159.2 -50.1 154.1C-65.9 148.9 -80.6 140 -93.8 129C-106.9 118.1 -118.6 105 -124.2 90.2C-129.8 75.5 -129.3 59 -134.6 43.7C-139.9 28.4 -150.9 14.2 -162 0L0 0Z" fill="#fad64f"></path><path d="M0 81C-8.5 80.3 -17.1 79.6 -25 77C-33 74.5 -40.3 70 -46.9 64.5C-53.5 59 -59.3 52.5 -62.1 45.1C-64.9 37.7 -64.6 29.5 -67.3 21.9C-69.9 14.2 -75.5 7.1 -81 0L0 0Z" fill="#ffcb30"></path></g><g transform="translate(0, 540)"><path d="M0 -324C36 -323.8 71.9 -323.5 100.1 -308.1C128.3 -292.8 148.8 -262.3 175.2 -241.1C201.5 -219.9 233.7 -207.9 254.8 -185.2C276 -162.4 286.1 -128.8 295.8 -96.1C305.5 -63.4 314.7 -31.7 324 0L0 0Z" fill="#f5f8b7"></path><path d="M0 -243C27 -242.8 53.9 -242.6 75.1 -231.1C96.3 -219.6 111.6 -196.7 131.4 -180.8C151.1 -164.9 175.3 -155.9 191.1 -138.9C207 -121.8 214.6 -96.6 221.8 -72.1C229.1 -47.6 236 -23.8 243 0L0 0Z" fill="#f5e884"></path><path d="M0 -162C18 -161.9 36 -161.8 50.1 -154.1C64.2 -146.4 74.4 -131.1 87.6 -120.5C100.7 -109.9 116.8 -104 127.4 -92.6C138 -81.2 143 -64.4 147.9 -48.1C152.7 -31.7 157.4 -15.9 162 0L0 0Z" fill="#fad64f"></path><path d="M0 -81C9 -80.9 18 -80.9 25 -77C32.1 -73.2 37.2 -65.6 43.8 -60.3C50.4 -55 58.4 -52 63.7 -46.3C69 -40.6 71.5 -32.2 73.9 -24C76.4 -15.9 78.7 -7.9 81 0L0 0Z" fill="#ffcb30"></path></g></svg>