<svg id="visual" viewBox="0 0 540 960" width="540" height="960" xmlns="http://www.w3.org/2000/svg" xmlns:xlink="http://www.w3.org/1999/xlink" version="1.1"><rect x="0" y="0" width="540" height="960" fill="#f8ffcf"></rect><defs><linearGradient id="grad1_0" x1="0%" y1="0%" x2="100%" y2="100%"><stop offset="30%" stop-color="#ffcb30" stop-opacity="1"></stop><stop offset="70%" stop-color="#ffcb30" stop-opacity="1"></stop></linearGradient></defs><defs><linearGradient id="grad1_1" x1="0%" y1="0%" x2="100%" y2="100%"><stop offset="30%" stop-color="#ffcb30" stop-opacity="1"></stop><stop offset="70%" stop-color="#f7df6a" stop-opacity="1"></stop></linearGradient></defs><defs><linearGradient id="grad1_2" x1="0%" y1="0%" x2="100%" y2="100%"><stop offset="30%" stop-color="#f4f19e" stop-opacity="1"></stop><stop offset="70%" stop-color="#f7df6a" stop-opacity="1"></stop></linearGradient></defs><defs><linearGradient id="grad1_3" x1="0%" y1="0%" x2="100%" y2="100%"><stop offset="30%" stop-color="#f4f19e" stop-opacity="1"></stop><stop offset="70%" stop-color="#f8ffcf" stop-opacity="1"></stop></linearGradient></defs><defs><linearGradient id="grad2_0" x1="0%" y1="0%" x2="100%" y2="100%"><stop offset="30%" stop-color="#ffcb30" stop-opacity="1"></stop><stop offset="70%" stop-color="#ffcb30" stop-opacity="1"></stop></linearGradient></defs><defs><linearGradient id="grad2_1" x1="0%" y1="0%" x2="100%" y2="100%"><stop offset="30%" stop-color="#f7df6a" stop-opacity="1"></stop><stop offset="70%" stop-color="#ffcb30" stop-opacity="1"></stop></linearGradient></defs><defs><linearGradient id="grad2_2" x1="0%" y1="0%" x2="100%" y2="100%"><stop offset="30%" stop-color="#f7df6a" stop-opacity="1"></stop><stop offset="70%" stop-color="#f4f19e" stop-opacity="1"></stop></linearGradient></defs><defs><linearGradient id="grad2_3" x1="0%" y1="0%" x2="100%" y2="100%"><stop offset="30%" stop-color="#f8ffcf" stop-opacity="1"></stop><stop offset="70%" stop-color="#f4f19e" stop-opacity="1"></stop></linearGradient></defs><g transform="translate(540, 0)"><path d="M0 405C-36.5 377.9 -73.1 350.7 -108.2 332.9C-143.2 315 -176.9 306.4 -212.2 292.1C-247.5 277.7 -284.6 257.5 -315.5 229.2C-346.5 201 -371.3 164.7 -385.2 125.2C-399.1 85.6 -402 42.8 -405 0L0 0Z" fill="#f5f8b7"></path><path d="M0 303.8C-27.4 283.4 -54.8 263 -81.1 249.7C-107.4 236.3 -132.6 229.8 -159.1 219C-185.6 208.3 -213.4 193.1 -236.6 171.9C-259.8 150.7 -278.5 123.5 -288.9 93.9C-299.3 64.2 -301.5 32.1 -303.7 0L0 0Z" fill="#f5e884"></path><path d="M0 202.5C-18.3 188.9 -36.5 175.4 -54.1 166.4C-71.6 157.5 -88.4 153.2 -106.1 146C-123.8 138.8 -142.3 128.7 -157.8 114.6C-173.2 100.5 -185.6 82.3 -192.6 62.6C-199.5 42.8 -201 21.4 -202.5 0L0 0Z" fill="#fad64f"></path><path d="M0 101.3C-9.1 94.5 -18.3 87.7 -27 83.2C-35.8 78.8 -44.2 76.6 -53 73C-61.9 69.4 -71.1 64.4 -78.9 57.3C-86.6 50.2 -92.8 41.2 -96.3 31.3C-99.8 21.4 -100.5 10.7 -101.2 0L0 0Z" fill="#ffcb30"></path></g><g transform="translate(0, 960)"><path d="M0 -405C36.3 -382.1 72.7 -359.2 112.8 -347.1C152.9 -335.1 196.8 -334 228.1 -313.9C259.3 -293.8 278.1 -254.8 305 -221.6C331.9 -188.4 367.1 -161.1 385.2 -125.2C403.2 -89.2 404.1 -44.6 405 0L0 0Z" fill="#f5f8b7"></path><path d="M0 -303.7C27.3 -286.6 54.5 -269.4 84.6 -260.4C114.7 -251.3 147.6 -250.5 171 -235.4C194.5 -220.4 208.5 -191.1 228.7 -166.2C249 -141.3 275.4 -120.8 288.9 -93.9C302.4 -66.9 303.1 -33.4 303.8 0L0 0Z" fill="#f5e884"></path><path d="M0 -202.5C18.2 -191 36.3 -179.6 56.4 -173.6C76.4 -167.6 98.4 -167 114 -156.9C129.7 -146.9 139 -127.4 152.5 -110.8C166 -94.2 183.6 -80.6 192.6 -62.6C201.6 -44.6 202.1 -22.3 202.5 0L0 0Z" fill="#fad64f"></path><path d="M0 -101.2C9.1 -95.5 18.2 -89.8 28.2 -86.8C38.2 -83.8 49.2 -83.5 57 -78.5C64.8 -73.5 69.5 -63.7 76.2 -55.4C83 -47.1 91.8 -40.3 96.3 -31.3C100.8 -22.3 101 -11.1 101.3 0L0 0Z" fill="#ffcb30"></path></g></svg>